<svg xmlns="http://www.w3.org/2000/svg" width="336" height="335" fill="none"><g clip-path="url(#a)"><path stroke="#070D16" stroke-miterlimit="10" d="M249.164-.5h-.67v.18h.67m0-.18v.18m0-.18h-.45m.45.18c0 4.42-3.59 5.83-7.06 7.21-3.96 1.57-8.06 3.19-8.06 9.1 0 .68.47 1.58 1.24 2.99 1.05 1.92 2.49 4.56 2.49 7.94 0 1.05-.14 2.1-.43 3.1-4.43 15.76-10.07 25.27-14.18 32.22-3.4 5.75-5.03 8.65-5.03 11.83 0 .38.02.76.06 1.17l.03.29c.7 6.62 1.3 12.34 1.3 17.45 0 14.42-5.28 23.65-18.25 31.86-19.59 12.4-45.19 1.95-60.48-4.3-3.16-1.29-7.08-2.89-8.46-3.17-4.28 0-8.02 2.08-12.76 4.69-7.52 4.17-15.84 8.08-27.65 6.45-15.3-2.12-33.55-11.48-42.48-21.76-9.51-10.98-20.24-17.57-31-19.07-.17-.02-.32-.04-.42-.06-4.66-.76-10.39-1.09-18.01-1.04v-.67c7.66-.05 13.41.27 18.12 1.05.1.01.23.03.4.05 10.93 1.52 21.8 8.19 31.42 19.29 8.83 10.17 26.91 19.43 42.06 21.54 11.61 1.61 19.82-2.26 27.23-6.37 4.83-2.67 8.63-4.77 13.16-4.77 1.5.29 5.46 1.92 8.64 3.21 15.18 6.19 40.57 16.56 59.86 4.35 12.75-8.07 17.95-17.13 17.95-31.29 0-5.07-.6-10.77-1.3-17.37l-.02-.29c-.05-.43-.07-.84-.07-1.24 0-3.36 1.66-6.32 5.13-12.18 4.09-6.92 9.7-16.39 14.11-32.06.27-.94.4-1.93.4-2.92 0-3.2-1.39-5.75-2.41-7.61-.82-1.51-1.32-2.49-1.32-3.31 0-6.36 4.51-8.15 8.49-9.72 3.55-1.41 6.63-2.62 6.63-6.58m-34.55 124.17c-1.44 1.77-3.23 3.98-5.23 5.1-3.92 2.21-8.41 8.97-8.62 9.27-1.07 1.86.39 9.9 2.76 21.98 1.32 6.76 2.58 13.16 2.59 15.89.05 7.49-1.74 13.33-2.93 17.18-.35 1.14-.65 2.13-.83 2.93-.86 3.72 2.21 8.97 11.06 11.72.09.01 8.8.86 18.01-6.04 9.35-7.01 37.25-9.57 48.99-2.49 5.61 3.39 16.06 9.69 17.75 20.16 1.31 8.1-2.72 17.67-11.97 28.48-25.01 29.2-27.29 32.18-26.02 41.88 1.25 9.55 16.58 29.03 20.39 32.61 1.38 1.31 6.24 5.44 10.68 4.1 2.92-.88 5-3.93 6.19-9.07 2.89-12.42 13.67-13.52 20.11-14.18.92-.09 1.7-.17 2.39-.27 4.12-.64 11.14-.67 15.69-.38h.05v-.67h-.05c-4.55-.29-11.63-.26-15.79.38-.67.1-1.45.18-2.36.27-6.18.64-17.7 1.82-20.69 14.7-1.13 4.89-3.06 7.78-5.73 8.59-4.09 1.24-8.71-2.71-10.03-3.95-3.77-3.55-18.96-22.81-20.19-32.21-.16-1.23-.26-2.34-.26-3.42 0-7.2 4.53-12.71 26.12-37.94 9.39-10.96 13.47-20.72 12.13-29.02-1.73-10.78-12.36-17.18-18.06-20.63-11.92-7.18-40.25-4.59-49.75 2.53-8.98 6.73-17.44 5.92-17.46 5.93-8.38-2.62-11.34-7.49-10.55-10.92.18-.78.48-1.76.83-2.89 1.18-3.85 2.95-9.64 2.95-17.11v-.27c-.02-2.79-1.27-9.21-2.61-16.01-1.72-8.79-3.86-19.74-2.84-21.5.05-.07 4.6-6.91 8.38-9.04 2.1-1.18 3.94-3.45 5.42-5.26 1.22-1.51 2.36-2.93 3.09-2.97.92-.06 2.78 1.8 4.59 3.58 1.42 1.42 2.9 2.89 4.32 3.9.91.65 22.33 15.79 41.12 16.5 6.11.23 20.98.13 27.05-5.81 2-1.96 3.71-2.8 5.08-2.48 2.09.47 3.35 3.48 4.36 6.26 1.98 5.4 6.9 14.9 17.68 17.8 5.53 1.49 6.93 1.42 9.48 1.29 1-.05 2.14-.11 3.76-.09h.01v-.67c-1.65-.02-2.79.04-3.8.09-2.48.13-3.86.2-9.28-1.26-10.48-2.83-15.29-12.11-17.22-17.39-1.07-2.94-2.43-6.13-4.84-6.68-1.63-.37-3.49.5-5.69 2.66-5.89 5.77-20.54 5.86-26.56 5.62-18.59-.7-39.86-15.73-40.75-16.37-1.39-.99-2.84-2.44-4.25-3.84-2.17-2.16-3.88-3.86-5.11-3.78-1.01.07-2.14 1.46-3.56 3.22v-.01Zm4.03 8.67c-1.66 1.76-3.29 3.07-4.99 4.02-.98.6-2.96 2.86-4.42 4.79l-.07.1v.13c.3 3.71 1.8 11.37 2.9 16.98 1.7 8.66 2.74 14.13 2.76 17.51v.32c0 8.67-2.07 15.43-3.31 19.47l-.38 1.25.15.14c.56.52 1.63 1.29 3.59 2.02l.06.03h.07c1.72-.07 6.25-.64 11.19-4.34 11.87-8.9 43.67-12.06 58.72-2.98 7.21 4.35 22.21 13.39 22.21 30.7 0 9.65-4.69 19.8-14.32 31.05-18.38 21.46-24.19 28.45-24.19 32.66 0 .62.06 1.39.2 2.42.81 6.3 14.11 24 17.72 27.4.47.44.96.83 1.46 1.18l.37.25.14-.42c.16-.48.31-1.02.45-1.61 4.28-18.47 21.29-20.22 27.7-20.87.76-.07 1.49-.15 1.95-.22 4.45-.69 11.04-.74 15.33-.57h.23l.09-.21c.37-.89.92-2.54 1.36-5.3l.05-.35s.01-.02.01-.03v-3.26c-.26 1.02-.48 2.09-.67 3.19l-.05.35c-.4 2.49-.87 4.03-1.24 4.94-4.31-.16-10.79-.1-15.21.58-.45.07-1.16.14-1.92.22-6.53.67-23.89 2.45-28.28 21.39-.09.39-.19.77-.3 1.12-.35-.26-.69-.55-1.01-.85-3.57-3.36-16.72-20.82-17.52-26.99-.13-1-.19-1.74-.19-2.34 0-3.98 5.77-10.91 24.03-32.23 9.74-11.37 14.48-21.67 14.48-31.49 0-17.69-15.22-26.86-22.54-31.27-15.24-9.2-47.44-5.99-59.46 3.02-4.73 3.54-9.05 4.12-10.75 4.2-1.64-.62-2.6-1.25-3.15-1.72l.26-.84c1.25-4.07 3.34-10.89 3.34-19.67v-.31c-.02-3.44-1.07-8.95-2.77-17.66-1.08-5.51-2.56-13.04-2.87-16.76 1.59-2.12 3.37-4.05 4.14-4.51 1.67-.94 3.28-2.22 4.9-3.9 1.18 1.1 2.19 1.95 3.19 2.65 2.47 1.77 24.84 17.33 45.84 18.11 8.96.34 21.31-.31 29.61-5.33 3.31 7.68 9.91 17.37 22.62 20.79 6.18 1.67 8.57 1.76 12.2 1.58h.14c.37.63.77 1.39 1.2 2.26.23.46.38.75.61 1.13.44.73.89 1.44 1.37 2.14v-1.22c-.27-.42-.54-.84-.8-1.27-.21-.35-.36-.64-.57-1.08-.49-.96-.93-1.8-1.33-2.48l-.1-.18-.55.03c-3.56.18-5.9.09-11.99-1.55-12.66-3.41-19.13-13.18-22.34-20.77l-.15-.37-.33.21c-8.16 5.11-20.58 5.77-29.56 5.43-20.81-.78-43.02-16.23-45.49-17.99-1.03-.74-2.09-1.63-3.35-2.82l-.24-.23-.23.25v-.02Zm.51 11.11-.18-.12-.37.23-.34.33.02.17c.59 3.74 1.59 8.87 2.33 12.62 1.85 9.44 2.89 14.97 2.92 19.17v.33c0 3.19-.25 6.45-.74 9.69l-.11.71.62-.38c15.58-9.52 48.54-12.49 66.11-1.89 7.9 4.77 26.42 15.93 26.42 38.15 0 11.81-5.37 23.82-16.42 36.72-10.48 12.25-20.39 23.81-22.03 27.39l-.03.08v.09c.02.16.05.36.09.65.63 2.48 4.53 8.54 7.98 13.38l.28.39.26-.39c6.01-8.48 16.03-13.5 29.83-14.92.5-.05 1.25-.13 1.48-.17 2.6-.4 5.99-.65 9.81-.72h.27l.05-.27c1.46-7.12 4.33-13.08 8.27-17.65v-1.03c-4.23 4.66-7.3 10.84-8.87 18.28-3.75.09-7.07.34-9.63.73-.23.03-.96.11-1.47.16-13.77 1.41-23.86 6.39-30 14.81-4.15-5.85-7.13-10.84-7.61-12.73-.02-.2-.04-.36-.06-.5 1.7-3.58 11.51-15.03 21.9-27.16 11.15-13.02 16.57-25.17 16.57-37.15 0-22.6-18.74-33.9-26.74-38.73-17.54-10.57-50.23-7.8-66.2 1.53.43-3.04.64-6.09.64-9.1V176c-.03-4.26-1.08-9.82-2.93-19.29-.72-3.68-1.71-8.71-2.3-12.42 7.97 5.38 28.22 17.61 48.62 18.37 10.21.39 18.98-.57 26.07-2.84 5.94 9.11 14.31 15.34 24.22 18.01 3.98 1.07 6.82 1.62 9.44 1.83 2.41 3.84 5.21 7.39 8.35 10.61v-.97a63.225 63.225 0 0 1-7.87-10.14l-.09-.14h-.17c-2.62-.21-5.46-.76-9.48-1.84-9.84-2.65-18.13-8.86-23.97-17.95l-.14-.21-.25.08c-7.06 2.3-15.84 3.27-26.08 2.89-20.4-.76-40.69-13.11-48.47-18.39v.04Zm11.09 17.12c.9 4.78 1.56 8.65 1.85 12.02l.03.41.39-.11c6.38-1.91 13.54-3.18 20.74-3.66l2.2-.15-2.14-.51c-7.24-1.72-14.84-4.53-22.6-8.35l-.6-.29.13.66v-.02Zm20.91 8.14c-6.4.56-12.73 1.73-18.43 3.41-.29-3.13-.9-6.7-1.71-11.02 6.89 3.34 13.65 5.9 20.14 7.61Zm39.06.17c-3.44.74-7.19 1.25-11.14 1.51l-2.22.15 2.17.51c5.7 1.34 10.71 3.29 14.89 5.81 8.38 5.05 30.63 18.47 30.63 45.61 0 13.98-6.06 27.84-18.51 42.38l-.06.07c-5.56 6.5-12.49 14.58-16.8 19.99l-1.3 1.63 1.75-1.14c6.75-4.41 15.25-7.17 25.27-8.2h.19c.32-.05.71-.09.94-.12 1.31-.19 2.77-.36 4.34-.49h.22l.07-.22c3.05-8.97 8.3-16.13 15.02-20.99v-.83c-6.96 4.92-12.41 12.2-15.58 21.4-1.5.13-2.9.3-4.16.48-.23.03-.6.07-.92.1l-.18.02c-9.32.96-17.35 3.39-23.9 7.27 4.31-5.32 10.49-12.54 15.55-18.44l.06-.07c12.56-14.67 18.67-28.68 18.66-42.82 0-27.51-22.48-41.07-30.94-46.18-3.75-2.26-8.15-4.07-13.11-5.39 3.17-.29 6.18-.74 9-1.33 6.72 8.12 15.53 13.83 25.47 16.52 2.58.7 4.7 1.18 6.65 1.53a71.892 71.892 0 0 0 13.4 14.26v-.87a71.33 71.33 0 0 1-12.93-13.9l-.08-.11-.13-.03c-1.97-.35-4.11-.84-6.74-1.55-9.87-2.66-18.6-8.34-25.25-16.45l-.13-.15-.2.04Zm41.59 40.95c.96 4.05 1.44 8.31 1.44 12.64 0 9.72-2.38 19.09-7.28 28.64l-.85 1.65 1.37-1.25c2.83-2.58 5.91-4.76 9.19-6.54v-.76a46.902 46.902 0 0 0-8.35 5.67c2.22-4.56 3.87-9.09 4.96-13.63 1.09-4.54 1.63-9.12 1.63-13.78 0-4.07-.42-8.06-1.25-11.89.98.74 1.98 1.46 3.01 2.16v-.81c-1.14-.78-2.25-1.59-3.34-2.44l-.75-.58.22.92ZM.004 162.12h.03c.83-.06 2.46 1.15 5.51 7.26.14.27.23.45.27.52 7.39 12.15 18.52 17.99 26.57 20.75 5 1.72 8.46 5.09 12.13 8.66 3.44 3.36 7 6.83 11.96 8.78 4.66 1.84 9.22 2.54 13.25 3.15 9.08 1.39 16.26 2.49 18.94 15.5 4.61 22.27 6.5 51.12 1.7 60.83-4.18 8.45-9.6 13.25-16.11 14.26-8.61 1.33-17.68-4.43-22.82-9.78-.96-.99-1.95-2.24-3-3.57-4.27-5.38-10.12-12.75-22.54-14.59-10.08-1.5-16.22 3.72-18.23 15.52l-.05.26c-1.27 7.96-3.97 12.34-7.59 12.35h-.02v.67c4.01 0 6.95-4.59 8.27-12.91l.04-.26c1.94-11.36 7.82-16.41 17.48-14.97 12.16 1.81 17.91 9.05 22.11 14.34 1.06 1.34 2.07 2.6 3.04 3.62 5.26 5.46 14.55 11.35 23.41 9.97 6.74-1.05 12.32-5.97 16.61-14.63 2-4.05 2.86-11.33 2.86-20.06 0-12.52-1.77-28.02-4.5-41.21-2.78-13.46-10.16-14.59-19.5-16.03-3.99-.61-8.52-1.3-13.11-3.11-4.83-1.9-8.34-5.32-11.73-8.63-3.56-3.47-7.24-7.05-12.39-8.81-7.93-2.73-18.93-8.48-26.21-20.47-.04-.06-.12-.22-.24-.47-1.67-3.35-4.13-7.78-6.13-7.63h-.01v.69Zm0 14.82c6.93 10.11 17.08 17.67 29.55 21.95 3.15 1.08 5.8 3.66 8.88 6.66 3.87 3.78 8.26 8.05 14.84 10.65 5.57 2.2 10.87 3.01 15.13 3.66 8.91 1.37 10.27 1.57 11.74 8.66 2.7 13.1 4.32 27.77 4.32 39.22s-1.59 15.34-1.91 15.99c-2.85 5.76-6.09 8.96-9.63 9.51-4.94.76-11.36-3.2-15.22-7.21-.67-.7-1.53-1.78-2.45-2.94-4.58-5.78-12.25-15.45-28.08-17.8-13.48-2-23.4 4.85-27.17 18.48v2.89c3.08-15.06 13.11-22.78 27.07-20.7 15.57 2.31 23.14 11.85 27.66 17.56.92 1.16 1.8 2.26 2.49 2.98 3.98 4.13 10.62 8.21 15.8 7.41 3.77-.58 7.18-3.91 10.13-9.88.33-.67 1.98-4.59 1.98-16.29s-1.62-26.22-4.34-39.36c-1.55-7.53-3.4-7.82-12.29-9.18-4.22-.64-9.48-1.45-14.98-3.62-6.46-2.54-10.8-6.78-14.63-10.51-3.13-3.05-5.83-5.68-9.12-6.81-12.66-4.34-22.91-12.09-29.77-22.49v1.19-.02Zm0 13.64c7.24 7.33 16.29 12.96 26.72 16.54 1.3.44 3.5 2.58 5.62 4.65 4.24 4.13 9.52 9.27 17.72 12.51 6.49 2.56 12.57 3.49 17.01 4.17 1.48.23 3.14.48 4.28.71.07.3.16.66.25 1.1 2.59 12.56 4.14 26.57 4.14 37.47 0 8.49-.93 11.79-1.1 12.32-1.6 3.19-2.83 4.28-3.22 4.57-1.22-.13-4.68-1.75-7.45-4.63-.39-.39-1.26-1.5-1.9-2.3-5.03-6.34-14.4-18.15-33.63-21.01-11.5-1.71-21.5 1.76-28.45 9.26v1.01c6.83-7.71 16.82-11.32 28.35-9.6 18.97 2.82 28.23 14.49 33.21 20.76.68.86 1.53 1.93 1.93 2.35 3.18 3.29 6.85 4.81 8.02 4.85h.11l.09-.05c.37-.25 1.75-1.34 3.55-4.94.2-.59 1.16-3.99 1.16-12.57 0-10.95-1.55-25.01-4.16-37.6-.11-.56-.21-1-.3-1.33l-.05-.2-.2-.05c-1.16-.24-2.95-.52-4.53-.76-4.4-.67-10.44-1.59-16.86-4.12-8.08-3.19-13.31-8.28-17.51-12.37-2.18-2.12-4.43-4.31-5.88-4.81-10.57-3.63-19.7-9.37-26.94-16.87v.96l.02-.02Zm0 11.7c6.75 5.44 14.54 9.77 23.13 12.8.79.64 2.25 2.06 3.13 2.93 4.55 4.43 10.78 10.49 20.62 14.37 6.26 2.47 12.16 3.62 17.12 4.4 1.93 10.75 3.04 22.01 3.04 30.95 0 .75-.01 1.49-.02 2.19-6.74-8.18-17.85-18.97-37.29-21.86-11.16-1.65-21.49.76-29.73 6.48v.82c8.17-5.82 18.48-8.3 29.63-6.64 19.77 2.94 30.83 14.14 37.43 22.31l.57.7.03-.9c.03-.99.05-2.03.05-3.11 0-9.03-1.13-20.45-3.1-31.29l-.04-.23-.23-.04c-4.98-.78-10.92-1.91-17.21-4.4-9.72-3.83-15.89-9.84-20.4-14.23-.9-.88-2.42-2.36-3.22-3l-.09-.05c-8.72-3.07-16.62-7.49-23.42-13.05v.86-.01Zm0 10.83c5.7 3.88 11.93 7.09 18.58 9.58.6.57 1.29 1.25 1.61 1.55 4.79 4.67 12.03 11.73 23.49 16.25 3.97 1.56 8.13 2.79 12.72 3.76.24 1.62.46 3.25.66 4.87-7.7-4.99-16.45-8.24-26.05-9.67-11.22-1.67-21.88.03-31.01 4.82v.75c9.08-4.83 19.71-6.56 30.91-4.9 9.75 1.45 18.63 4.8 26.39 9.96l.6.4-.09-.72c-.23-1.93-.49-3.89-.78-5.83l-.04-.23-.23-.05c-4.64-.96-8.84-2.2-12.83-3.78-11.34-4.47-18.52-11.47-23.28-16.1-.32-.31-1.04-1.02-1.66-1.61l-.11-.07a87.6 87.6 0 0 1-18.87-9.78v.8h-.01Zm15.77 18.06-.69.09a56.55 56.55 0 0 0-9.73 2.11l-.52.16.09-.54c.35-2.22.6-4.47.72-6.7l.03-.51.46.23c2.59 1.3 5.27 2.51 7.98 3.58l.11.07 1.55 1.51Zm-10.1 1.4c2.8-.84 5.7-1.47 8.65-1.88l-.52-.5a99.364 99.364 0 0 1-7.52-3.35 65.13 65.13 0 0 1-.62 5.73h.01Zm237.85-29.19c-12.69 4.09-28.29 16.92-32.22 32.63-2.07 8.25-3.1 16.8-4.1 25.07-1.97 16.28-3.83 31.66-13.14 41.56-16.18 17.22-38.79 16.62-48.46 16.37-1.62-.04-2.9-.07-4.02-.03-35.28 1.19-55.71 4.12-55.72 15.53h.67c.01-10.87 20.2-13.68 55.08-14.87 1.09-.03 2.37 0 3.98.04 9.75.26 32.57.86 48.96-16.58 9.46-10.07 11.33-25.55 13.32-41.95.99-8.24 2.03-16.76 4.08-24.98 3.87-15.48 19.26-28.11 31.77-32.15 9.56-3.09 27.38-1.35 36.92 5.59 5.23 3.81 7.87 9.13 7.25 14.82-1.01 9.21-8.41 16.64-16.24 24.5-4.83 4.85-9.83 9.87-12.81 14.89-5.14 8.68-7.54 15.99-7.54 22.99 0 2.62.32 5.26.99 8.32 1.68 7.59 3.83 10.42 6.11 13.43 2.11 2.79 4.74 6.25 5.84 12.06.12.65.19 1.32.19 1.98 0 1.95-2.67 2.52-5.76 3.18-4.63 1-10.38 2.22-10.57 8.71h.67c.18-5.94 5.41-7.07 10.04-8.06 3.37-.72 6.28-1.35 6.28-3.84 0-.71-.06-1.42-.2-2.11-1.12-5.96-3.81-9.5-5.97-12.34-2.23-2.94-4.33-5.72-5.98-13.17-.66-3.01-.97-5.61-.97-8.17 0-6.88 2.37-14.08 7.45-22.65 2.93-4.95 7.9-9.94 12.7-14.76 7.92-7.95 15.39-15.46 16.43-24.91.06-.57.09-1.14.09-1.71 0-5.27-2.7-10.15-7.61-13.72-9.69-7.05-27.79-8.82-37.51-5.69v.02Zm2.68 8.29c-10.61 3.42-23.4 14.24-26.45 26.45-1.94 7.73-2.93 16-3.9 24.01-2.05 16.95-4.18 34.48-15.45 46.47-18.85 20.06-45.13 19.37-55.03 19.11-1.47-.04-2.63-.07-3.49-.04-10.77.36-24.38 1-34.22 2.65-9.13 1.53-12.06 3.4-12.92 4.19h1.11c1.32-.83 4.53-2.28 11.93-3.52 9.79-1.65 23.38-2.28 34.12-2.64.84-.03 2 0 3.46.04 9.97.26 36.47.96 55.53-19.32 11.42-12.15 13.56-29.79 15.63-46.86.96-7.98 1.96-16.23 3.88-23.92 3-11.97 15.57-22.61 26-25.97 7.22-2.33 22.06-.78 29.11 4.35.86.62 1.8 1.45 2.52 2.49.73 1.03 1.23 2.25 1.23 3.66 0 .22-.01.45-.04.68-.67 6.18-7.02 12.56-13.75 19.31-5.21 5.23-10.59 10.64-14.12 16.59-5.97 10.08-8.76 18.8-8.76 27.43 0 3.27.38 6.5 1.19 10.19 2.09 9.46 5.19 13.53 7.68 16.82 1.01 1.33 1.97 2.6 2.73 4.07-9.01 2.38-13.96 7.4-14.71 14.91-.35.15-.73.29-1.04.42-.81.32-1.84.73-2.96 1.27h1.6c.6-.25 1.14-.47 1.61-.66.37-.14.82-.32 1.24-.5l.18-.08.02-.2c.67-7.43 5.59-12.35 14.63-14.63l.41-.1-.18-.38c-.83-1.68-1.88-3.07-3-4.55-2.45-3.23-5.49-7.24-7.55-16.55-.8-3.64-1.18-6.83-1.18-10.05 0-8.51 2.75-17.12 8.66-27.09 3.49-5.88 8.85-11.26 14.03-16.46 6.81-6.84 13.24-13.3 13.94-19.71.03-.26.04-.52.04-.76 0-3.1-2.19-5.35-4.02-6.69-7.2-5.23-22.35-6.82-29.71-4.44v.01Zm2.67 8.29c-8.2 2.64-18.46 11.42-20.67 20.28-1.8 7.2-2.77 15.2-3.71 22.94-2.11 17.49-4.51 37.32-17.74 51.39-11.21 11.93-24.48 17.44-36.17 19.94h2.96c11.08-2.79 23.26-8.38 33.7-19.48 13.38-14.23 15.79-34.18 17.92-51.77.93-7.71 1.89-15.7 3.69-22.86 2.16-8.64 12.2-17.22 20.22-19.8 4.84-1.56 16.5-.26 21.2 3.02-1.37 3.4-6.9 8.96-10.97 13.04-5.59 5.61-11.36 11.41-15.44 18.3-6.81 11.49-9.98 21.61-9.98 31.87 0 3.91.44 7.75 1.4 12.07 1.33 6.02 3.26 11.06 5.88 15.39-4.49 3.11-7.59 7.25-9.23 12.31-4.35 2.14-7.83 4.78-10.41 7.92h.89c2.51-2.91 5.82-5.37 9.94-7.37l.14-.07.04-.13c1.61-5.08 4.73-9.21 9.28-12.28l.26-.18-.17-.27c-2.67-4.33-4.62-9.38-5.97-15.46-.94-4.27-1.38-8.06-1.38-11.92 0-10.13 3.14-20.15 9.88-31.53 4.04-6.81 9.79-12.58 15.35-18.16 4.2-4.23 9.96-10.01 11.21-13.52l.08-.23-.29-.23c-4.72-3.43-16.9-4.81-21.91-3.19v-.02Zm2.67 8.28c-6.24 2.02-13.62 9-14.89 14.1-.81 3.23-1.5 6.89-2.17 11.52l-.27 1.84.89-1.63c.58-1.06 1.2-2.14 1.84-3.23 4.59-7.74 10.72-13.9 16.7-19.9.62-.63 1.46-1.47 2.37-2.4l.52-.53-.74-.04c-1.31-.07-3.12-.08-4.25.26v.01Zm3.47.37c-.71.72-1.35 1.37-1.89 1.9-5.96 5.99-12.12 12.17-16.75 19.99-.33.55-.65 1.1-.96 1.64.59-3.77 1.19-6.87 1.89-9.64 1.23-4.92 8.39-11.67 14.44-13.62.69-.21 1.83-.3 3.27-.27Zm-28.7 69.65c-3.19 8.91-7.51 16.19-13.21 22.26-5.62 5.98-11.67 10.53-17.78 13.98h1.36c5.81-3.41 11.55-7.82 16.91-13.52 5.52-5.88 9.77-12.87 12.94-21.36l.24 1.14c.93 4.23 2.11 7.98 3.6 11.48-2.2 2.45-4.01 5.2-5.37 8.19-6.26 3.66-10.92 8.4-13.89 14.07h.76c2.94-5.45 7.49-10.01 13.56-13.54l.09-.05.04-.1c1.37-3.03 3.2-5.81 5.45-8.27l.14-.16-.08-.2c-1.51-3.51-2.7-7.29-3.64-11.56-.18-.78-.33-1.54-.48-2.3l-.22-1.21-.42 1.16v-.01ZM254.684 9.2c-5.42 1.29-8.78 5.35-9.24 11.15-1.44 18.49-11.53 36.18-14.59 41.17-3.78 6.15-3.69 8.82-3.49 14.65.14 4.15.33 9.84-.75 19.57-1.46 13.12 2.06 23 10.45 29.37 6.15 4.67 14.8 10.15 27.15 11.09 13.24 1 28.6-3.95 32.86-10.59 1.5-2.32 2.19-3.96 2.92-5.71 1.4-3.32 3-7.09 10.53-16.93 8.43-11 16.66-16.56 24.46-16.54h.02v-.67c-8.04-.02-16.45 5.63-25.01 16.8-7.59 9.9-9.19 13.71-10.61 17.08-.73 1.72-1.41 3.34-2.87 5.6-4.15 6.47-19.22 11.27-32.25 10.29-12.18-.92-20.72-6.34-26.79-10.95-8.19-6.22-11.62-15.9-10.2-28.77 1.1-9.78.9-15.49.76-19.66-.19-5.7-.28-8.3 3.39-14.29 3.08-5.02 13.24-22.82 14.69-41.46.59-7.52 5.72-9.84 8.72-10.55 6.62-1.57 14.72 1.63 18.06 7.15 12.89 21.32 25.81 30.67 38.39 27.77 8.69-2 12.82-1.86 17.6-1.7 1.85.07 3.76.13 6.12.08v-.66h-.01c-2.33.04-4.24-.02-6.09-.09-4.83-.16-8.99-.3-17.78 1.71-12.26 2.81-24.93-6.43-37.66-27.47-3.53-5.84-11.78-9.12-18.78-7.46v.02Zm2.01 8.48c-1.48.35-2.37 1.01-2.56 3.36-1.55 19.87-11.61 38.12-15.85 45.04-2.28 3.71-2.28 4.85-2.28 6.9 0 .81.02 1.75.07 2.9.05 1.51.11 3.38.11 5.59 0 4.73-.3 9.71-.91 15.24-.18 1.59-.27 3.14-.27 4.6 0 10.14 4.19 14.49 7.33 16.88 5.52 4.19 12.51 8.58 22.54 9.34 11.55.87 23.05-3.77 24.88-6.62 1.08-1.69 1.53-2.76 2.22-4.39 1.53-3.62 3.42-8.12 11.64-18.85 10.16-13.26 20.72-19.98 31.39-19.95v-.67c-10.89-.03-21.63 6.78-31.92 20.22-8.27 10.79-10.19 15.34-11.73 18.99-.67 1.59-1.11 2.65-2.16 4.28-1.76 2.73-12.95 7.17-24.27 6.31-9.85-.74-16.74-5.07-22.18-9.2-3.04-2.3-7.07-6.5-7.07-16.35 0-1.43.09-2.96.26-4.53.62-5.54.92-10.55.92-15.31 0-2.22-.06-4.1-.11-5.67-.05-1.08-.07-2.02-.07-2.82 0-1.94 0-3 2.18-6.56 4.27-6.96 14.39-25.32 15.95-45.34.15-1.98.75-2.45 2.04-2.76 3-.71 7.18.84 8.6 3.19 15.06 24.89 31.14 35.57 47.79 31.75 7.58-1.74 10.84-1.63 15.38-1.47 1.83.06 3.9.13 6.39.08v-.67c-2.48.05-4.54-.02-6.4-.08-4.56-.16-7.85-.27-15.52 1.49-16.34 3.75-32.18-6.83-47.07-31.45-1.55-2.57-6.08-4.27-9.32-3.5v.03Zm4.79 13.68c-3.53 18-12.21 33.46-15.78 39.27-.57.92-.84 1.45-.97 1.72l-.02.63c0 .64.02 1.48.06 2.51v.09c.05 1.57.12 3.51.12 5.89 0 5.05-.32 10.35-.97 16.2-.14 1.27-.21 2.5-.21 3.64 0 6.99 2.53 8.91 3.89 9.95 4.73 3.6 10.18 7 17.92 7.59 7.76.59 15.1-2.04 17.27-3.32l.07-.04.05-.08c.35-.64.6-1.21 1.03-2.26 1.72-4.07 3.86-9.15 12.75-20.75 11.89-15.52 24.78-23.38 38.31-23.36v-.67c-13.75-.02-26.81 7.93-38.84 23.63-8.94 11.68-11.1 16.8-12.84 20.91-.4.98-.64 1.53-.95 2.1-2.2 1.27-9.3 3.75-16.79 3.18-7.57-.57-12.93-3.92-17.58-7.45-1.26-.96-3.62-2.75-3.62-9.41 0-1.12.07-2.32.21-3.56.65-5.87.97-11.2.97-16.27 0-2.38-.07-4.34-.12-5.91v-.1c-.04-1.02-.06-1.85-.06-2.48v-.42c.11-.24.37-.73.89-1.59 3.54-5.76 12.06-20.94 15.71-38.7 16.18 23.96 34.07 33.87 53.2 29.48 6.47-1.49 8.83-1.41 13.11-1.26 1.81.06 4.05.13 6.71.09v-.67c-2.65.04-4.88-.03-6.69-.09-4.34-.15-6.72-.23-13.28 1.28-19 4.36-36.82-5.69-52.94-29.87l-.45-.68-.16.8v-.02Zm3.7 18.87c-3.8 10.45-8.45 19-11.68 24.32l-.05.09.03.65c.04 1.54.12 3.64.12 6.18 0 5.38-.34 10.99-1.02 17.16-.11.95-.16 1.85-.16 2.67 0 1.59.19 2.45.3 2.82l.06.13.09.07c4.36 3.32 8.11 5.45 13.31 5.84 4.36.33 8.43-.78 9.98-1.27l.14-.05.06-.14c1.92-4.48 4.69-10.22 13.42-21.61 4.86-6.36 10-11.65 15.27-15.75l.71-.56-.91-.04c-13.89-.54-27.05-7.49-39.11-20.63l-.37-.41-.19.52v.01Zm38.75 21.14c-5.07 4.05-10 9.2-14.69 15.32-8.68 11.34-11.5 17.12-13.43 21.62-1.61.49-5.46 1.5-9.58 1.18-5-.38-8.64-2.44-12.9-5.66-.1-.38-.24-1.15-.24-2.52 0-.8.05-1.68.15-2.6.69-6.19 1.03-11.83 1.03-17.24 0-2.55-.08-4.66-.12-6.2l-.02-.46c3.19-5.26 7.72-13.62 11.49-23.84 11.82 12.74 24.71 19.59 38.31 20.4Zm-35.56-6.17c-1.86 3.96-3.9 7.87-6.08 11.62l-.05.08v.09c.05 1.61.07 3.07.07 4.48 0 5.63-.34 11.47-1.05 17.87l-.02.21.18.11c1.92 1.14 3.49 1.67 5.42 1.82.96.07 2.01.03 3.13-.11l.18-.02.08-.17c1.72-3.48 4.9-9.29 12.63-19.38 1.44-1.88 2.92-3.7 4.4-5.41l.32-.36-.45-.17c-6.28-2.4-12.41-6.03-18.24-10.79l-.34-.27-.18.39v.01Zm18.08 11.11c-1.39 1.62-2.78 3.33-4.12 5.08-7.65 9.98-10.87 15.8-12.63 19.33-1 .12-1.95.15-2.81.08-1.75-.13-3.2-.6-4.94-1.61.69-6.33 1.03-12.14 1.03-17.73 0-1.39-.02-2.83-.06-4.4 2.09-3.62 4.07-7.38 5.87-11.2 5.65 4.56 11.59 8.07 17.66 10.45Zm-15.45 2.81v.09c.01.78.02 1.53.02 2.26v1.73l.61-.86c.67-.94 1.36-1.9 2.09-2.88l.23-.3-.33-.19c-.53-.31-1.07-.64-1.6-.96l-.3-.19-.72 1.3Zm1.96.24c-.44.59-.86 1.17-1.27 1.74 0-.6 0-1.2-.02-1.82l.29-.53c.34.21.67.41 1 .6v.01ZM85.944-.32h.67c.1 8.45 3.77 10.25 6.72 11.7 1.93.94 3.75 1.84 3.94 4.37.18 2.4-.32 4.16-1.51 5.38-2.9 2.96-9.84 2.6-20.33 2.07-4.53-.23-9.67-.49-15.49-.56-10.54-.11-28.93-6.38-36.35-9.06-2.71-.98-7.77-2.82-9.49-2.82-2.37.38-3.3 3.15-3.64 4.78-.64 3.09-.97 6.53-1.29 9.85-.88 9.27-1.72 18.03-9.16 18.03v-.67h.04c6.79 0 7.6-8.46 8.46-17.43.32-3.34.65-6.8 1.3-9.93.38-1.79 1.42-4.86 4.25-5.3 1.88 0 7.01 1.85 9.76 2.85 7.39 2.67 25.68 8.91 36.13 9.02 5.83.07 10.97.33 15.51.56 10.32.53 17.13.88 19.82-1.87 1.05-1.08 1.48-2.67 1.32-4.87-.16-2.14-1.66-2.89-3.57-3.82-3.12-1.53-7.01-3.44-7.09-12.29v.01Zm138.72 16.31c0 3.11 1.32 5.54 2.39 7.49.83 1.52 1.57 2.93 1.27 4-4.11 14.58-9.17 23.13-13.23 30-3.69 6.22-6.34 10.71-6.34 16.61 0 .7.03 1.42.11 2.14l.04.33c.67 6.34 1.24 11.83 1.24 16.43 0 11.18-3.63 17.44-13.89 23.93-15.5 9.81-38.3.51-51.92-5.06-5.57-2.27-8.2-3.29-10.14-3.68l-.91-.18h-.87c-6.78 0-11.94 2.85-17.39 5.87-6.63 3.67-12.84 6.6-21.81 5.36-12.87-1.78-29.32-10.13-36.68-18.62-11.03-12.72-23.76-20.4-36.81-22.21l-.21-.03c-5.16-.84-11.34-1.21-19.44-1.16h-.07v.67h.06c8.07-.05 14.22.31 19.35 1.15l.22.03c12.89 1.79 25.48 9.39 36.4 21.99 7.44 8.59 24.09 17.04 37.09 18.84 9.17 1.27 15.5-1.71 22.23-5.44 5.37-2.97 10.45-5.79 17.06-5.78h.8l.84.17c1.89.38 4.5 1.39 10.03 3.64 13.74 5.61 36.73 14.99 52.52 5 10.5-6.64 14.21-13.06 14.21-24.5 0-4.65-.57-10.14-1.25-16.51l-.03-.32c-.08-.7-.11-1.4-.11-2.08 0-5.71 2.62-10.14 6.24-16.27 4.08-6.9 9.17-15.49 13.3-30.16.07-.24.1-.48.1-.74 0-1.15-.69-2.42-1.42-3.76-1.03-1.88-2.31-4.22-2.31-7.17 0-10.03 6.84-14.26 11.42-16.31h-1.57c-4.6 2.3-10.52 6.76-10.52 16.31v.02ZM95.174 3.11v.06l.1.1c.21.21.85.53 1.61.9 2.36 1.16 7.88 3.88 8.41 10.99.03.52.05 1.03.05 1.52 0 5.32-2.27 8.61-4.18 10.41-5.47 5.2-13.7 4.77-26.14 4.15-4.45-.23-9.5-.49-15.16-.55-11.36-.12-29.32-6.03-39.01-9.54-.96-.35-1.84-.66-2.62-.93l-.39-.14-.05.41c-.24 1.83-.43 3.8-.61 5.69-.48 4.96-.96 10.08-2.55 14.38-3.61 9.86-11.43 10.92-14.62 10.92v.67c3.34 0 11.5-1.11 15.26-11.37 1.61-4.38 2.1-9.55 2.58-14.55.17-1.75.34-3.55.56-5.26.68.24 1.42.5 2.23.8 9.73 3.52 27.77 9.46 39.23 9.58 5.65.06 10.69.32 15.13.54 12.63.65 20.97 1.07 26.64-4.32 2-1.9 4.39-5.34 4.39-10.9 0-.51-.02-1.04-.06-1.57-.55-7.5-6.32-10.33-8.78-11.55-.36-.17-1.17-.58-1.4-.74-.09-.21-.41-1.06-.45-3.1.02-.01.04-.03.06-.04h-.73c.03 2.14.37 3.1.52 3.43l-.02.01Zm120.78 12.88c0 5.24 2.12 9.21 3.32 11.41-3.66 12.09-7.92 19.29-11.68 25.64-4.05 6.84-7.55 12.76-7.55 21.03 0 1 .05 2.03.16 3.05l.03.35c.65 6.09 1.2 11.35 1.2 15.5 0 8.12-2.11 11.69-9.84 16.58-11.71 7.41-31.9-.83-43.96-5.76-5.89-2.4-8.97-3.6-11.72-4.15l-1.76-.35h-1.74c-9.03 0-15.71 3.69-21.6 6.95-5.79 3.21-10.05 5.24-16.4 4.36-10.71-1.49-25.33-8.82-31.29-15.7-12.44-14.34-27.03-23.03-42.2-25.13h-.11c-5.61-.93-12.19-1.33-20.7-1.27h-.11v.67h.11c8.48-.05 15.03.34 20.61 1.25h.11c15.01 2.1 29.46 10.71 41.78 24.92 6.05 6.98 20.87 14.42 31.7 15.93 6.56.9 10.92-1.17 16.82-4.43 5.82-3.22 12.42-6.88 21.28-6.87h1.67l1.7.34c2.69.54 5.75 1.73 11.6 4.12 12.18 4.97 32.57 13.29 44.57 5.7 7.97-5.05 10.15-8.73 10.15-17.14 0-4.18-.55-9.46-1.2-15.58l-.04-.34c-.1-1.01-.15-2.01-.15-2.99 0-8.09 3.45-13.94 7.46-20.7 3.79-6.41 8.09-13.68 11.78-25.92l.04-.13-.06-.13c-1.16-2.11-3.31-6.05-3.31-11.21 0-6.41 1.91-11.87 5.7-16.31h-.87c-3.66 4.48-5.5 9.93-5.5 16.31Zm-70.78-14.43h-.11c-1.18-.03-2.28-.06-2.87-.04-9.78.33-22.2.89-31.52 2.24l-.53.08.31.44c2.05 2.95 3.24 6.39 3.52 10.23.05.73.08 1.45.08 2.16 0 6.56-2.45 12.5-6.89 16.73-8.18 7.77-18.95 7.22-32.59 6.52-4.36-.22-9.31-.48-14.81-.54-8.11-.09-19.56-2.56-34.03-7.35l-.39-.13-.05.4c-.35 2.9-1 7.22-2.47 11.22-5.67 15.46-18.9 16.66-22.82 16.66v.67c4.03 0 17.63-1.23 23.43-17.07 1.43-3.89 2.08-8.05 2.46-10.97 14.35 4.73 25.74 7.17 33.85 7.25 5.49.06 10.43.32 14.78.54 13.81.7 24.71 1.26 33.09-6.71 4.58-4.35 7.1-10.46 7.1-17.21 0-.72-.03-1.47-.08-2.22-.28-3.77-1.4-7.17-3.34-10.11 9.21-1.29 21.33-1.83 30.92-2.16.56-.02 1.66 0 2.82.04h.11c5.72.15 16.36.44 28.31-2.55h-2.99c-10.7 2.27-20.07 2.02-25.3 1.88h.01Zm-.24 9.38c9.44.25 31.07.82 51.72-11.26h-1.35c-20.19 11.38-41.13 10.83-50.36 10.59h-.12c-.8-.03-1.99-.05-2.34-.05-5.56.19-12.84.48-19.77 1.01l-.35.03.05.36c.11.74.19 1.5.25 2.26.75 10.11-2.67 19.35-9.5 25.84-10.89 10.35-24.56 9.64-39.03 8.91-4.28-.21-9.13-.47-14.46-.52-7.07-.07-16.24-1.72-27.26-4.88l-.32-.09-.09.32c-.31 1.07-.64 2.11-1 3.09-2.18 5.92-5.49 10.82-9.86 14.57l-.55.48 1.44.22c17.13 2.38 33.45 12 47.17 27.83 4.65 5.36 17.69 11.8 26.32 13 3.63.5 5.8-.32 11.4-3.43 6.42-3.55 14.4-7.96 25.51-7.96h2.54l2.54.51c3.42.69 6.8 2 13.18 4.6 9.22 3.76 28.4 11.59 36.6 6.4 5.91-3.74 6.11-4.9 6.11-9.79 0-3.73-.52-8.79-1.15-14.65l-.04-.35c-.13-1.31-.2-2.62-.2-3.9 0-10.47 4.41-17.93 8.67-25.13 3.34-5.63 6.78-11.45 9.9-20.73l.04-.12-.05-.12c-1.76-3.92-2.65-7.96-2.65-11.98 0-6.03 1.33-11.51 3.9-16.31h-.76c-2.51 4.82-3.81 10.29-3.81 16.31 0 4.08.89 8.16 2.66 12.13-3.09 9.14-6.5 14.9-9.81 20.48-4.3 7.29-8.76 14.82-8.76 25.47 0 1.31.07 2.64.21 3.96l.04.36c.62 5.85 1.14 10.89 1.14 14.59 0 4.76-.15 5.65-5.8 9.22-7.9 5.01-26.87-2.73-36-6.46-6.41-2.62-9.81-3.93-13.29-4.63l-2.6-.52h-2.6c-11.3-.01-19.36 4.45-25.84 8.04-5.46 3.02-7.55 3.82-10.98 3.35-8.51-1.18-21.34-7.51-25.91-12.78-13.84-15.95-30.29-25.66-47.58-28.05h-.01c4.19-3.76 7.39-8.59 9.51-14.38.33-.89.64-1.84.92-2.81 10.94 3.11 20.06 4.74 27.12 4.81 5.32.05 10.16.3 14.43.52 14.63.74 28.44 1.45 39.53-9.09 6.98-6.63 10.47-16.08 9.7-26.39-.04-.65-.11-1.3-.2-1.94 6.8-.52 13.92-.8 19.38-.99.33 0 1.52.02 2.31.04h.12l-.01.01Zm54.51-3.55c-22.1 12.44-44.98 11.84-54.76 11.58h-.39c-.57-.03-1.25-.04-1.61-.04-2.93.1-6.84.24-11 .46h-.29l-.02.31c-.71 10.17-5.04 19.51-12.21 26.33-13.6 12.91-30.54 12.05-45.48 11.29-4.18-.21-8.91-.46-14.11-.51-6.05-.07-13.39-1.13-21.82-3.16l-.27-.07-.11.25c-.34.7-.68 1.39-1.05 2.05l-.19.35.38.13c14.42 4.9 27.63 14.18 39.26 27.59 3.03 3.49 13.93 9.11 20.94 10.08.86.12 1.29.18 5.98-2.42 6.91-3.82 16.37-9.05 29.74-9.05h3.4l3.39.68c4.16.84 7.86 2.26 14.75 5.07 4.32 1.77 10.85 4.43 17.1 6.07 8.59 2.26 11.24 1.18 11.55 1.04.79-.5 1.44-.93 1.92-1.28l.14-.1v-1.06c0-3.27-.51-8.12-1.11-13.73l-.03-.36c-.18-1.61-.26-3.22-.26-4.81 0-12.86 5.26-21.73 9.89-29.57 2.86-4.83 5.56-9.39 8.1-16.13l.04-.11-.04-.11a37.082 37.082 0 0 1-2.07-12.16c0-2.81.24-5.59.72-8.25l.13-.7-.62.36.01-.02Zm-.91 8.6c0 4.12.7 8.24 2.07 12.27-2.5 6.62-5.18 11.14-8 15.91-4.68 7.91-9.98 16.87-9.98 29.91 0 1.61.09 3.25.26 4.88l.04.37c.59 5.59 1.09 10.42 1.09 13.66v.71c-.46.33-1.04.72-1.71 1.14-.03.01-2.55 1.14-11.05-1.09-6.22-1.64-12.72-4.29-17.03-6.05-6.93-2.83-10.65-4.26-14.87-5.11l-3.45-.69h-3.47c-13.54-.01-23.09 5.26-30.06 9.13-4.5 2.49-4.9 2.43-5.57 2.34-6.88-.95-17.57-6.45-20.52-9.85-11.61-13.39-24.79-22.7-39.18-27.66.26-.49.51-.99.76-1.49 8.38 2.01 15.68 3.05 21.72 3.12 5.17.05 9.91.3 14.08.51 15.07.77 32.17 1.64 45.97-11.47 7.23-6.86 11.61-16.25 12.39-26.47 4.05-.21 7.83-.35 10.69-.44.33 0 1 .01 1.57.03h.4c9.73.27 32.41.86 54.48-11.32-.41 2.49-.62 5.06-.62 7.68l-.01-.02Zm-8.16 5.15c-19.44 7.23-37.33 6.76-45.92 6.53h-.57c-.38-.03-.78-.04-1.07-.04-1.08.03-2.28.08-3.58.13h-.25l-.06.26c-2.14 9.38-6.9 17.79-13.76 24.32-16.31 15.49-36.05 14.49-51.93 13.68l-3.28-.17.73.64c4.02 3.51 7.94 7.45 11.66 11.74 1.59 1.68 8.76 5.58 13.94 6.85l.12.03.11-.06c.47-.24 1.11-.58 1.96-1.06 7.31-4.05 18.34-10.15 33.96-10.14h4.28l4.23.86c5.06 1.02 9.54 2.77 16.32 5.55 4.12 1.67 10.33 4.21 16.03 5.71.66.17 1.27.32 1.83.45l.45.1-.04-.46c-.18-1.84-.39-3.83-.61-5.87l-.04-.38c-.2-1.91-.3-3.83-.3-5.72 0-15.24 6.15-25.64 11.11-34.01 2.36-3.99 4.4-7.44 6.36-12.06l.04-.11-.03-.11c-.56-2.1-.98-4.24-1.24-6.37l-.05-.42-.4.15v-.02Zm1.01 6.71c-1.92 4.52-3.93 7.94-6.27 11.89-4.99 8.43-11.2 18.92-11.2 34.34 0 1.92.1 3.86.3 5.79l.04.39c.2 1.86.4 3.7.57 5.4-.43-.1-.88-.21-1.36-.34-5.67-1.49-11.85-4.01-15.94-5.68-6.82-2.79-11.33-4.55-16.44-5.59l-4.3-.86h-4.35c-15.79-.02-26.92 6.14-34.28 10.21-.78.44-1.38.76-1.83 1-5.2-1.32-12.12-5.19-13.48-6.62-3.51-4.04-7.21-7.8-11-11.16l1.36.07c16 .81 35.91 1.83 52.42-13.86 6.9-6.56 11.7-14.99 13.9-24.4 1.19-.05 2.31-.09 3.3-.12.27 0 .66.01 1.04.03h.57c8.58.24 26.37.7 45.78-6.41.26 1.98.65 3.97 1.17 5.93v-.01Zm-11.9 5.6-1.29 2.19c-5.18 8.74-12.26 20.71-12.32 38.19v.49l-.46-.17c-1.79-.7-3.45-1.37-4.86-1.95-7.05-2.88-12.1-4.86-17.89-6.02l-5.08-1.03h-5.14c-3.09 0-6.2.21-9.24.64l-1.47.2 1.24-.82c2.86-1.88 5.62-4.07 8.19-6.52 6.38-6.06 11.32-13.67 14.3-22.01l.08-.23h.25c8.48.21 19.89.07 32.94-2.8l.75-.17v.01Zm-14.28 39.88c.2-17.4 7.25-29.32 12.41-38.04l.51-.86c-12.68 2.71-23.78 2.85-32.11 2.66-3.03 8.35-8 15.96-14.39 22.05a60.5 60.5 0 0 1-7.11 5.8c2.62-.31 5.28-.46 7.93-.46h5.21l5.14 1.04c5.86 1.18 10.94 3.17 18.02 6.05 1.28.52 2.78 1.13 4.39 1.77v-.01Zm-67.12.95-2.58 1.4-.14-.06c-.26-.1-.51-.21-.77-.32l-1.2-.52 1.3-.13c.55-.05 1.1-.11 1.66-.18l1.73-.2v.01Zm65.43-29.6-.22.51c-2.38 5.44-4.01 10.76-5.01 16.28l-.07.4-.38-.15c-5.3-2.04-9.32-3.26-13.44-4.09l-.53-.11.32-.43c2.76-3.64 5.14-7.59 7.09-11.73l.08-.19h.22c3.98-.02 7.7-.17 11.37-.46l.56-.05v.02h.01Zm-5.82 16.28c.98-5.26 2.54-10.34 4.76-15.52-3.45.26-6.94.39-10.67.41a66.237 66.237 0 0 1-6.75 11.23c3.88.81 7.72 1.99 12.66 3.87v.01ZM288.684 21c-1.08-4.94 2.28-7.17 6.16-9.74 3.83-2.54 8.19-5.42 8.19-11.57l-.67-.01c0 5.8-4.01 8.45-7.89 11.02-3.92 2.6-7.62 5.05-6.44 10.45 1.02 4.64 3.29 8.11 6.73 10.31 4.35 2.77 10.55 3.37 17.94 1.72 12.17-2.72 11.98-16.71 11.79-29.04-.02-1.51-.04-2.99-.04-4.45h-.67c0 1.46.02 2.95.04 4.47.19 12.67.37 25.78-11.27 28.37-7.2 1.61-13.23 1.04-17.43-1.63-3.29-2.1-5.45-5.42-6.44-9.89V21Zm8.75-.95c.65-.49 1.55-1.08 2.22-1.53 4.49-2.97 12.01-7.96 12.09-18.66v-.17h-.67v.16c-.08 10.36-7.4 15.22-11.8 18.13-.74.49-1.76 1.17-2.43 1.69l-.18.14.06.21c.82 2.89 2.25 3.8 2.72 4.1 2.32 1.48 6.36 1.68 11.36.56 2.65-.6 5.03-2.26 5.03-15.9 0-1.47-.02-2.95-.04-4.42v-.09c-.02-1.53-.05-3.05-.05-4.54v-.04h-.67v.04c0 1.49.03 3.01.05 4.55v.09c.02 1.47.04 2.94.04 4.41 0 13.15-2.14 14.72-4.51 15.25-4.83 1.08-8.68.91-10.84-.47-.41-.26-1.63-1.04-2.38-3.5v-.01Zm26.35 314.45h.67c.01-7.92 7.1-10.49 10.55-10.49v-.67c-3.66 0-11.21 2.73-11.22 11.16Zm-15.89-16.12c-3.7 3.61-5.57 9.03-5.58 16.12h.67c.01-6.9 1.82-12.16 5.38-15.64 6.17-6.03 16.26-5.81 23.63-5.65 1.07.03 2.09.05 3 .05h.01v-.67c-.92 0-1.92-.02-2.99-.05-7.5-.17-17.75-.39-24.12 5.84Zm11.39-213.26c-6.84 6.9-10.91 15.77-10.91 23.77v.19c.07 7.67 2.1 13.45 6.06 17.17 5.98 5.63 14.77 5.17 19 4.95.64-.03 1.17-.06 1.56-.06v-.67c-.41 0-.94.03-1.59.06-4.14.21-12.74.67-18.51-4.76-3.82-3.6-5.78-9.21-5.85-16.69v-.19c0-7.83 4-16.53 10.72-23.3 5.07-5.11 10.91-8.28 15.24-8.28v-.67c-4.5 0-10.53 3.25-15.72 8.49v-.01Zm.4 216.78c-2.54.56-4.4 1.44-5.7 2.71-1.91 1.86-2.9 5.06-2.95 9.55v.35h.7v-.07l-.03-.31c.05-4.27.98-7.31 2.75-9.04 1.04-1.02 2.49-1.77 4.44-2.3-2.5 3.35-3.82 7.38-3.82 11.72h.67c0-4.52 1.49-8.69 4.27-12.06l.62-.75-.95.21v-.01Zm-2.6-193.02v.13c.05 5.2 1.16 8.87 3.31 10.9 3.28 3.08 9.34 2.76 12.59 2.59.71-.04 1.38-.07 2.02-.07v-.67c-.66 0-1.34.03-2.06.07-3.15.17-9.02.48-12.08-2.41-2.03-1.9-3.06-5.4-3.11-10.42v-.13c0-12.32 13.14-22.87 17.25-22.87v-.67c-4.27 0-17.92 10.86-17.92 23.54v.01Zm8.71-.04v.1c.02 2.55.37 3.87.57 4.43l.06.16.16.05c1.5.46 4.72.29 5.93.23.79-.05 1.61-.09 2.49-.09v-.67c-.91 0-1.72.04-2.53.09-1.02.05-4.07.21-5.54-.16-.18-.6-.45-1.83-.47-4.05v-.1c0-5.69 5.41-11.29 8.54-13.48v-.8c-3.18 2.09-9.21 8.12-9.21 14.28v.01ZM.004 151.37h.01c6.54-.07 9.82 7.27 10.18 8.12 3.16 7.51 6.86 14.17 20.17 19.65 12.91 5.31 16.73 8.99 22.37 15.03 6.21 6.64 17.95 7.98 22.72 8.24 7.35.41 25.28 9.38 26.04 29.13.33 8.69.89 16.38 1.37 23.17.63 8.79 1.17 16.37.96 22.53-.41 11.4-7.47 31.09-31.34 32.61-13.27.84-23.59-10.58-27.99-15.46l-.52-.58c-.42-.46-.87-.97-1.35-1.51-3.9-4.39-9.78-11.03-15.61-11.14-10.77-.19-11.95 7.61-13 14.49-.19 1.31-.38 2.55-.63 3.75-.66 3.19-3.57 13.57-13.33 13.6l-.05-.02v.69c10.31 0 13.35-10.81 14.03-14.13.26-1.22.46-2.53.64-3.79 1.06-6.92 2.15-14.1 12.33-13.92 5.53.1 11.3 6.6 15.12 10.91.48.54.93 1.05 1.35 1.51l.53.58c4.47 4.95 14.93 16.54 28.52 15.68 24.35-1.55 31.55-21.64 31.96-33.26.23-6.19-.32-13.79-.95-22.6-.49-6.78-1.04-14.47-1.37-23.15-.78-20.19-19.15-29.35-26.68-29.77-4.68-.26-16.21-1.57-22.26-8.04-5.7-6.11-9.56-9.82-22.6-15.19-13.08-5.38-16.72-11.93-19.82-19.29-.38-.88-3.82-8.59-10.81-8.53v.67l.01.02Zm2.46-54.6c-1.01.02-1.84.03-2.46.03v.67c.62 0 1.45-.01 2.47-.03 3.03-.07 7.6-.17 13.47.05 10.1.37 20.13 9.76 28.17 17.3 1.21 1.13 2.38 2.22 3.49 3.23 7.82 7.11 25.32 19.14 54.59 19.81 7.15.16 12.52-3.03 17.26-5.83 4.02-2.38 7.81-4.64 12.17-4.64 4.11 0 9.71 1.94 16.19 4.19 8.63 2.99 18.41 6.38 27.75 6.24 13.47-.21 14.49 3.35 15.89 8.3.27.94.55 1.92.92 2.94 2.3 6.17 3.35 15.68 4 23.29.33 3.79-.51 8.76-1.41 14.01-.97 5.66-1.97 11.5-1.56 16.36.46 5.6 5.95 8.18 10.36 10.26 3.03 1.43 5.65 2.66 5.65 4.39 0 2.44-1.46 5.84-3.16 9.77-1.45 3.38-3.1 7.2-4.15 11.2-1.59 6.05-2.03 10.1-2.64 15.69-.7 6.52-1.57 14.62-4.7 29.86-4.14 20.26-36.7 26.29-43.38 26.05-8.46-.3-24.23-.86-55.2 6.26-8.88 2.04-12.58 6.62-15.56 10.3-1.91 2.37-3.57 4.41-6.14 5.11-10.8 2.9-20.76-.54-30.39-3.85-2.53-.88-5.15-1.78-7.71-2.53-1.2-.35-2.71-1.77-4.46-3.4-3.26-3.04-7.32-6.83-12.44-6.96-3.32-.09-5.66 1.77-8.15 3.73-2.84 2.24-6.05 4.77-11.34 4.77v.67c5.52 0 8.84-2.61 11.76-4.92 2.49-1.97 4.64-3.67 7.72-3.59 4.87.12 8.82 3.81 11.99 6.78 1.82 1.7 3.38 3.16 4.74 3.56 2.54.74 5.15 1.65 7.68 2.52 9.72 3.35 19.77 6.82 30.77 3.86 2.79-.74 4.5-2.87 6.49-5.33 2.92-3.6 6.54-8.08 15.2-10.07 30.87-7.1 46.58-6.54 55.02-6.24 6.77.24 39.83-5.91 44.07-26.59 3.12-15.27 4-23.39 4.7-29.92.6-5.57 1.03-9.59 2.61-15.59 1.05-3.96 2.68-7.76 4.13-11.1 1.72-4 3.21-7.45 3.21-10.04 0-2.16-2.79-3.48-6.04-5-4.25-2-9.54-4.49-9.98-9.7-.39-4.77.6-10.58 1.56-16.19.9-5.3 1.76-10.3 1.42-14.18-.65-7.64-1.71-17.22-4.04-23.47-.37-.99-.64-1.96-.91-2.89-1.43-5.04-2.56-9.02-16.54-8.79-9.22.15-18.94-3.23-27.52-6.2-6.54-2.26-12.19-4.23-16.41-4.23-4.54 0-8.42 2.3-12.52 4.73-4.88 2.9-9.93 5.89-16.89 5.74-29.06-.67-46.41-12.59-54.16-19.64-1.11-1-2.27-2.1-3.48-3.22-8.13-7.62-18.26-17.1-28.61-17.48-5.88-.21-10.47-.11-13.5-.05Zm22.15 193.35-.09-.06-.2.19c-.75.76-1.28 3.87-1.72 6.73-.21 1.36-.42 2.77-.71 4.19-.38 1.82-.88 3.58-1.5 5.21l-.16.42.45.03c7.65.59 13.1 5.69 16.72 9.07.63.59 1.41 1.33 1.92 1.74l.11.06c2.45.74 4.89 1.59 7.27 2.41 8.78 3.03 17.08 5.89 25.43 3.74l.07-.02.06-.05c.49-.41 1.38-1.51 2.09-2.39.64-.8 1.37-1.7 2.2-2.63l.59-.67-.89.11c-1.06.14-2.15.25-3.25.32-17.47 1.11-30.21-13-35-18.31l-.5-.56a105 105 0 0 1-1.42-1.59c-2.95-3.32-7.12-7.79-9.31-8.2-1.19-.01-1.85.13-2.18.24l.02.02Zm10.99 8.42c.5.56.98 1.1 1.42 1.58l.5.56c4.85 5.38 17.76 19.66 35.54 18.53.81-.05 1.63-.12 2.44-.21-.61.7-1.16 1.38-1.65 2-.63.78-1.49 1.84-1.95 2.25-8.12 2.06-16.3-.76-24.99-3.76-2.34-.81-4.77-1.65-7.2-2.39-.5-.41-1.27-1.13-1.84-1.67-3.61-3.38-9.04-8.44-16.69-9.21.56-1.55 1.03-3.2 1.38-4.9.29-1.44.51-2.85.72-4.25.25-1.66.84-5.5 1.48-6.29.21-.07.78-.23 1.96-.23 1.43.28 4.42 2.96 8.88 8v-.01ZM2.644 105.47c-1.09.03-1.97.04-2.64.04v.67a100 100 0 0 0 2.67-.04c2.93-.06 7.35-.15 12.96.05 6.85.25 15.92 8.75 22.54 14.95 1.25 1.16 2.44 2.28 3.58 3.32 8.72 7.93 28.15 21.34 60.25 22.07 9.65.22 16.44-3.81 21.9-7.04 3.1-1.83 5.77-3.42 7.73-3.42 2.64 0 8.07 1.89 13.33 3.71 8.86 3.07 19.87 6.88 30.75 6.71 4.08-.06 6.06.29 6.94.54.14.42.3.98.43 1.44.3 1.06.63 2.25 1.14 3.61 2.18 5.85 3.16 17.24 3.49 20.99.02.3.04.64.04 1.02 0 2.78-.67 6.66-1.37 10.77-.87 5.11-1.78 10.39-1.78 15.48 0 1.07.04 2.1.12 3.07.87 10.39 10.12 14.95 14.84 17.18-.4 1.02-.87 2.1-1.29 3.08-1.58 3.65-3.37 7.8-4.59 12.42-1.75 6.68-2.24 11.22-2.86 16.98-.69 6.33-1.54 14.2-4.57 29.05-2.76 13.45-28.74 19.3-34.54 19.09-7.97-.29-22.73-.82-49.91 4.82 6.88-7.52 11.01-17.83 11.39-28.45.04-1.05.06-2.17.06-3.32 0-5.86-.48-12.51-1.04-20.23-.47-6.71-1.02-14.31-1.35-22.84-.97-25.31-23.58-37.5-34.89-38.12-7.34-.41-13.76-2.49-16.38-5.28-6.36-6.82-11.26-11.38-25.65-17.3-10.07-4.14-12.52-8.48-15.11-14.62-2.71-6.44-9.27-13.9-18.83-13.85v.67c9.24-.06 15.58 7.19 18.22 13.44 2.65 6.29 5.16 10.73 15.46 14.98 14.26 5.87 19.12 10.39 25.42 17.14 2.73 2.92 9.33 5.07 16.83 5.48 11.11.62 33.3 12.6 34.26 37.49.33 8.54.88 16.15 1.36 22.9.55 7.68 1.03 14.31 1.03 20.15 0 1.15-.02 2.26-.06 3.3-.39 10.82-4.73 21.32-11.93 28.78l-.76.78 1.07-.23c27.76-5.84 42.74-5.3 50.78-5.02 5.92.21 32.4-5.8 35.22-19.62 3.04-14.87 3.89-22.77 4.59-29.13.61-5.71 1.09-10.23 2.84-16.86 1.21-4.59 2.98-8.7 4.57-12.39.45-1.03.96-2.22 1.41-3.33l.11-.3-.28-.13c-4.86-2.29-13.89-6.55-14.75-16.76-.08-.95-.12-1.97-.12-3.02 0-5.02.9-10.28 1.77-15.38.71-4.13 1.38-8.04 1.38-10.87 0-.4-.02-.76-.04-1.08-.33-3.77-1.32-15.24-3.53-21.17-.49-1.33-.83-2.51-1.13-3.56-.15-.53-.33-1.18-.49-1.64l-.05-.16-.16-.05c-.83-.26-2.87-.68-7.32-.62-10.76.17-21.71-3.62-30.52-6.68-5.31-1.84-10.8-3.74-13.55-3.74-2.14 0-4.89 1.63-8.07 3.52-5.38 3.19-12.08 7.17-21.54 6.95-31.89-.73-51.17-14.03-59.83-21.89-1.13-1.04-2.32-2.15-3.56-3.32-6.71-6.27-15.88-14.87-22.98-15.13-5.62-.2-10.06-.11-13.01-.05Zm.19 8.71c-.77.01-1.45.03-2.03.04l-.14.03c-.2.1-.42.23-.66.38v.79c.33-.22.63-.41.89-.54.56 0 1.22-.02 1.96-.03 2.83-.06 7.11-.15 12.46.04.02 0 1.86.12 6.45 3.51 3.56 2.63 7.22 6.06 10.46 9.1 1.28 1.19 2.51 2.34 3.68 3.41 9.62 8.74 30.98 23.53 65.92 24.33 12.14.27 20.8-4.86 26.54-8.26 1.19-.71 2.81-1.67 3.76-2.11 2.17.42 7.05 2.11 9.99 3.13 9.51 3.3 21.33 7.39 33.75 7.19h.24c.8 2.2 1.96 7.23 2.94 18.62.01.09.01.18.01.28 0 2.04-.63 5.73-1.24 9.3-.94 5.47-1.91 11.13-1.91 16.95 0 1.31.06 2.58.16 3.8.68 8.22 4.88 15.02 12.47 20.23-1.45 3.55-2.49 6.58-3.26 9.51-1.92 7.32-2.47 12.38-3.1 18.24-.66 6.15-1.5 13.82-4.45 28.25-1.29 6.33-20.67 12.23-25.71 12.14-6.2-.22-16.54-.59-33.25 1.73a54.21 54.21 0 0 0 3.14-16.34c.05-1.16.07-2.38.07-3.64 0-6.17-.49-12.96-1.06-20.82-.47-6.65-1.01-14.19-1.34-22.59-1.2-31.23-28.67-45.69-43.11-46.48-5.99-.34-9.76-1.93-10.54-2.58-6.94-7.43-12.68-12.79-28.65-19.37-7.51-3.09-8.54-5.52-10.4-9.95-3.74-8.91-13.03-19.24-26.86-19.18v.67c13.5-.06 22.57 10.05 26.24 18.77 1.93 4.59 2.99 7.11 10.75 10.31 15.85 6.52 21.54 11.84 28.45 19.23.9.76 4.75 2.42 10.96 2.76 14.23.79 41.3 15.05 42.48 45.85.33 8.41.87 15.95 1.35 22.62.56 7.85 1.05 14.62 1.05 20.77 0 1.25-.02 2.46-.07 3.61a53.83 53.83 0 0 1-3.28 16.66l-.2.52.56-.07c16.97-2.4 27.43-2.02 33.69-1.8 5.47.11 24.96-5.75 26.38-12.67 2.96-14.47 3.79-22.15 4.45-28.32.63-5.83 1.17-10.88 3.09-18.14.78-2.97 1.84-6.05 3.33-9.68l.1-.25-.23-.15c-7.55-5.11-11.72-11.8-12.4-19.88-.1-1.2-.15-2.46-.15-3.74 0-5.77.97-11.39 1.9-16.84.61-3.59 1.25-7.31 1.25-9.4 0-.12 0-.23-.01-.33-1-11.62-2.19-16.68-3.03-18.93l-.13-.31h-.7c-12.3.21-24.06-3.87-33.53-7.16-3.19-1.1-8.01-2.77-10.18-3.17h-.11l-.09.03c-.96.44-2.68 1.45-3.92 2.19-5.67 3.36-14.24 8.44-26.19 8.17-34.72-.8-55.93-15.48-65.48-24.15-1.17-1.07-2.39-2.21-3.68-3.42-3.24-3.03-6.91-6.48-10.51-9.13-4.67-3.45-6.61-3.63-6.82-3.64-5.37-.19-9.66-.1-12.5-.04v-.05Zm176.12 112.79-.07.2a73.13 73.13 0 0 0-1.39 4.65c-2.08 7.89-2.68 13.49-3.32 19.42-.63 5.83-1.41 13.07-4.12 26.46l-.02.11-.08.07c-3.12 2.83-14.19 6.49-17.77 6.58-4.75-.17-11.9-.42-22.44.45l-.42.03.07-.41c.29-2.1.48-4.25.55-6.36.05-1.25.07-2.57.07-3.92 0-6.46-.5-13.38-1.07-21.39-.48-6.59-1.01-14.05-1.33-22.33-.78-20.26-10.96-33.17-19.36-40.42-9.19-7.94-21.2-13.21-31.34-13.78-3.09-.17-5.09-.73-6.01-1.05l-.08-.03-.06-.06c-6.52-6.88-13.3-13.16-30.43-20.21-4.45-1.83-4.54-2.04-6.05-5.64-4.46-10.58-15.6-23.23-32.37-24.05l-.68-.03.44-.52c.56-.66 1.16-1.28 1.72-1.79l.09-.08h.13c2.97-.07 6.26-.11 10.24.01l.15.04c.56.29 1.53.86 2.99 1.93 3.19 2.36 6.67 5.61 9.73 8.49 1.32 1.24 2.57 2.41 3.77 3.5 10.46 9.5 33.6 25.56 71.15 26.42 14.44.33 24.7-5.75 30.82-9.39l.7-.42.14.05c2.13.67 4.83 1.61 6.12 2.06 8.37 2.91 18.75 6.5 29.99 7.43l.26.02.04.26c.48 2.95.91 6.62 1.29 10.92-.05 1.54-.69 5.31-1.12 7.81-1 5.82-2.02 11.82-2.02 18.33 0 1.53.06 3.03.18 4.47.71 8.54 4.33 15.95 10.76 22.03l.15.15h-.01l.01-.01Zm-9.53 50.49c2.68-13.29 3.45-20.49 4.08-26.29.64-5.96 1.25-11.58 3.34-19.52.39-1.49.83-2.95 1.34-4.49-6.37-6.09-10.1-13.8-10.81-22.31-.12-1.45-.18-2.97-.18-4.52 0-6.56 1.03-12.59 2.03-18.42.42-2.5 1.06-6.25 1.11-7.7-.36-4.12-.78-7.68-1.24-10.57-11.22-.97-21.54-4.55-29.85-7.43-1.31-.45-3.91-1.35-6-2.02l-.44.26c-6.2 3.67-16.55 9.82-31.19 9.48-37.76-.86-61.05-17.03-71.58-26.59-1.2-1.09-2.46-2.27-3.78-3.51-3.05-2.86-6.52-6.1-9.67-8.44-1.36-1-2.28-1.55-2.83-1.85-3.87-.11-7.1-.07-10.01-.01-.36.33-.74.72-1.12 1.12 16.69 1.15 27.8 13.81 32.27 24.42 1.47 3.49 1.49 3.56 5.68 5.28 17.21 7.09 24.06 13.39 30.61 20.31.92.32 2.83.83 5.75.99 10.29.57 22.45 5.91 31.75 13.94 8.5 7.35 18.8 20.4 19.59 40.9.32 8.26.85 15.72 1.33 22.31.58 8.02 1.07 14.95 1.07 21.44 0 1.36-.02 2.69-.07 3.94-.07 2.01-.24 4.03-.5 6.02 10.35-.84 17.4-.58 22.08-.42 3.37-.09 14.16-3.64 17.24-6.34v.02Zm-.27-48.19-.09.34c-2.24 8.52-2.91 14.71-3.56 20.7-.54 5.02-1.22 11.28-3.26 21.96l-.03.17-.16.07c-3.11 1.4-8.06 3.01-10 3.23-3.49-.12-7.61-.23-13.01-.07h-.35v-.34c0-.36.01-.72.01-1.08 0-6.77-.5-13.83-1.09-22.01-.47-6.52-1-13.91-1.32-22.05-.9-23.39-12.66-38.29-22.37-46.68-5.22-4.51-11.32-8.36-17.62-11.11l-1.71-.75 1.87.11c1.63.09 3.3.16 4.95.2 14.61.34 25.61-4.93 32.61-8.93l.14-.07.14.05c.82.28 1.56.53 2.11.72l.14.05c6.96 2.41 15.62 5.42 25.11 7l.25.04.02.25c.11 1.01.22 2.08.32 3.19-.15 1.47-.75 4.95-.97 6.26-1 5.89-2.14 12.55-2.14 19.8 0 1.77.07 3.52.21 5.18.72 8.71 4.07 16.87 9.68 23.62l.12.13v.02Zm-7.53 42.69c2.01-10.55 2.68-16.74 3.22-21.73.65-6.01 1.32-12.22 3.58-20.8-5.64-6.84-9-15.08-9.73-23.87-.14-1.69-.21-3.45-.21-5.24 0-7.31 1.14-14 2.15-19.9.22-1.31.81-4.77.96-6.15-.09-.96-.19-1.93-.29-2.87-9.44-1.61-18.04-4.59-24.96-6.99l-.15-.05c-.51-.17-1.2-.42-1.96-.68-7.08 4.02-18.14 9.27-32.82 8.94-1.07-.03-2.15-.06-3.22-.11a71.387 71.387 0 0 1 16.17 10.48c9.81 8.47 21.7 23.53 22.61 47.16.31 8.12.84 15.5 1.31 22.02.61 8.49 1.13 15.81 1.09 22.8 5.25-.15 9.28-.03 12.65.09 1.81-.22 6.53-1.75 9.59-3.11h.01v.01Zm-1.93-40.73-.03.14c-1.65 7.21-2.27 12.94-2.81 17.99-.46 4.24-.98 9.04-2.29 16.53l-.03.19-.19.06c-1.1.37-2.18.68-2.87.85h-.05l-.05.01c-1.03-.03-2.31-.07-3.8-.1h-.32v-.32c-.21-4.7-.57-9.68-.95-14.96-.46-6.47-.99-13.78-1.3-21.78-.98-25.41-13.37-41.94-23.59-51.34l-.44-.4.57-.17c4.44-1.32 8.79-3.1 13.3-5.44l.13-.07.13.05c5.08 1.76 11.03 3.76 17.5 5.32l.3.07-.2 1.18c-1.06 6.23-2.27 13.27-2.27 21.26 0 2.01.08 4 .24 5.91.74 8.92 3.83 17.52 8.94 24.87l.08.12v.03Zm-5.76 34.35c1.29-7.35 1.8-12.09 2.25-16.27.54-5.05 1.16-10.76 2.79-17.94a51.614 51.614 0 0 1-8.96-25.07c-.16-1.93-.24-3.94-.24-5.97 0-8.04 1.21-15.12 2.27-21.37l.1-.58c-6.31-1.54-12.14-3.49-17.11-5.21-4.31 2.23-8.48 3.95-12.73 5.25 10.23 9.54 22.41 26.12 23.39 51.4.3 7.98.83 15.29 1.29 21.74.37 5.18.72 10.07.92 14.68 1.34.03 2.5.06 3.46.09.64-.15 1.59-.44 2.59-.76h-.02v.01Zm-10.9-81.34-.04.29c-.25 1.71-.46 3.3-.63 4.84l-.1.96-.51-.82a78.82 78.82 0 0 0-4.43-6.42l-.65-.86 1.03.33c1.8.59 3.46 1.11 5.06 1.59l.28.08h-.01v.01Zm-1.22 4.1c.14-1.17.29-2.36.48-3.63-1.22-.37-2.47-.76-3.79-1.18a82.28 82.28 0 0 1 3.31 4.82v-.01ZM69.634 12.69c-9.83-1.98-31.9-2.97-40.97-8.56-4.93-3.03 3.46-.93 10.46.67 9.14 2.08 17.72 1.13 24.89 2.45 8.44 1.55 16.15.6 15.11 4.29-1.04 3.69-9.49 1.16-9.49 1.16v-.01Zm-57.5 316.3c0-3.12 7.8-10.95 12.99-4.5 5.19 6.45-2.92 9.64-6.5 8.67-3.58-.97-6.5-.42-6.5-4.17h.01Z"/></g><defs><clipPath id="a"><path fill="#fff" d="M0 0h336v335H0z"/></clipPath></defs></svg>